<?xml version="1.0" encoding="UTF-8"?>
<svg version="1.1" xmlns="http://www.w3.org/2000/svg" width="119" height="119">
<path d="M0 0 C39.27 0 78.54 0 119 0 C119 39.27 119 78.54 119 119 C79.73 119 40.46 119 0 119 C0 79.73 0 40.46 0 0 Z " fill="#3969EB" transform="translate(0,0)"/>
<path d="M0 0 C39.27 0 78.54 0 119 0 C119 39.27 119 78.54 119 119 C79.73 119 40.46 119 0 119 C0 79.73 0 40.46 0 0 Z M6 7 C6 41.65 6 76.3 6 112 C41.31 112 76.62 112 113 112 C113 77.35 113 42.7 113 7 C77.69 7 42.38 7 6 7 Z " fill="#FCFDFB" transform="translate(0,0)"/>
<path d="M0 0 C1.32 0 2.64 0 4 0 C4 2.31 4 4.62 4 7 C5.7015625 7.2165625 5.7015625 7.2165625 7.4375 7.4375 C11 8 11 8 12 9 C12.07179964 10.51928038 12.08392007 12.04167482 12.0625 13.5625 C12.05347656 14.38878906 12.04445312 15.21507812 12.03515625 16.06640625 C12.02355469 16.70449219 12.01195312 17.34257813 12 18 C9.47524538 19.26237731 7.68799534 19.09856404 4.875 19.0625 C3.96492188 19.05347656 3.05484375 19.04445313 2.1171875 19.03515625 C1.06917969 19.01775391 1.06917969 19.01775391 0 19 C-0.5534764 21.07553648 -1 22.84365964 -1 25 C-1.31478446 26.33783393 -1.64587656 27.67203709 -2 29 C-2 28.01 -2 27.02 -2 26 C-2.99 25.67 -3.98 25.34 -5 25 C-4.67 24.34 -4.34 23.68 -4 23 C-5.4540625 23.2475 -5.4540625 23.2475 -6.9375 23.5 C-11.29487763 24.13396273 -15.60630704 24.0896672 -20 24 C-21.07525194 21.34771188 -22.09456151 18.71631546 -23 16 C-21.02 16.33 -19.04 16.66 -17 17 C-17 16.01 -17 15.02 -17 14 C-17.804375 14.020625 -18.60875 14.04125 -19.4375 14.0625 C-22 14 -22 14 -23 13 C-23.125 10.5 -23.125 10.5 -23 8 C-21.48578999 6.48578999 -20.07527232 6.78690144 -17.96484375 6.68359375 C-17.15595703 6.64169922 -16.34707031 6.59980469 -15.51367188 6.55664062 C-14.2384668 6.49766602 -14.2384668 6.49766602 -12.9375 6.4375 C-12.08349609 6.39431641 -11.22949219 6.35113281 -10.34960938 6.30664062 C-8.23327963 6.20023298 -6.11666187 6.09958269 -4 6 C-4 6.66 -4 7.32 -4 8 C-3.34 8 -2.68 8 -2 8 C-1.34 5.36 -0.68 2.72 0 0 Z " fill="#3D64EA" transform="translate(62,47)"/>
<path d="M0 0 C7.92 0 15.84 0 24 0 C24 4 24 8 24 12 C23.01 12.33 22.02 12.66 21 13 C20.34 12.67 19.68 12.34 19 12 C19 12.66 19 13.32 19 14 C20.65 14 22.3 14 24 14 C23.67 15.32 23.34 16.64 23 18 C22.01 18 21.02 18 20 18 C20.66 19.32 21.32 20.64 22 22 C21.01 22.99 20.02 23.98 19 25 C18.67 24.01 18.34 23.02 18 22 C16.906875 22.061875 15.81375 22.12375 14.6875 22.1875 C11 22 11 22 9.125 20.6875 C8 19 8 19 7 16 C4.69 16 2.38 16 0 16 C0 15.34 0 14.68 0 14 C0.66 13.67 1.32 13.34 2 13 C2.495 11.2675 2.495 11.2675 3 9.5 C3.495 7.7675 3.495 7.7675 4 6 C4.66 5.67 5.32 5.34 6 5 C2.2236068 4.7018576 2.2236068 4.7018576 0 6 C0 4.02 0 2.04 0 0 Z " fill="#2D71EF" transform="translate(48,24)"/>
<path d="M0 0 C1.32 0 2.64 0 4 0 C4 0.99 4 1.98 4 3 C3.01 3 2.02 3 1 3 C1 4.32 1 5.64 1 7 C1.99 7 2.98 7 4 7 C4 8.32 4 9.64 4 11 C3.34 11 2.68 11 2 11 C2.66 12.32 3.32 13.64 4 15 C4.33 12.36 4.66 9.72 5 7 C6.32 7 7.64 7 9 7 C9 9.97 9 12.94 9 16 C10.32 16 11.64 16 13 16 C13 13.03 13 10.06 13 7 C13.99 7 14.98 7 16 7 C16.16834933 8.77067416 16.33461909 10.54154612 16.5 12.3125 C16.5928125 13.29863281 16.685625 14.28476562 16.78125 15.30078125 C17.20921544 20.58156912 17.20921544 20.58156912 16 23 C16.66 23.33 17.32 23.66 18 24 C15.14839609 24.81434143 12.63373869 25.11881242 9.671875 25.09765625 C8.87265625 25.09443359 8.0734375 25.09121094 7.25 25.08789062 C6.425 25.07951172 5.6 25.07113281 4.75 25.0625 C3.90953125 25.05798828 3.0690625 25.05347656 2.203125 25.04882812 C0.13538599 25.03707961 -1.93231624 25.01914522 -4 25 C-4 19 -4 13 -4 7 C-3.34 7 -2.68 7 -2 7 C-2.04125 6.21625 -2.0825 5.4325 -2.125 4.625 C-2 2 -2 2 0 0 Z " fill="#3571EF" transform="translate(20,47)"/>
<path d="M0 0 C1.32 0.33 2.64 0.66 4 1 C3.67 1.99 3.34 2.98 3 4 C7.41522109 2.73025028 7.41522109 2.73025028 11 0 C10.67 2.31 10.34 4.62 10 7 C9.34 7 8.68 7 8 7 C8 7.99 8 8.98 8 10 C8.66 10.33 9.32 10.66 10 11 C8.51886719 11.07347656 8.51886719 11.07347656 7.0078125 11.1484375 C5.72648437 11.22320312 4.44515625 11.29796875 3.125 11.375 C1.21074219 11.47941406 1.21074219 11.47941406 -0.7421875 11.5859375 C-4.08061699 11.67241106 -4.08061699 11.67241106 -6 14 C-8.00546689 13.70131344 -10.00577205 13.36628677 -12 13 C-12.99 13.33 -13.98 13.66 -15 14 C-15.33 12.68 -15.66 11.36 -16 10 C-17.98 10.33 -19.96 10.66 -22 11 C-21.67 8.69 -21.34 6.38 -21 4 C-20.34 4 -19.68 4 -19 4 C-19 3.34 -19 2.68 -19 2 C-18.01 2.33 -17.02 2.66 -16 3 C-16.33 3.66 -16.66 4.32 -17 5 C-15.68 5 -14.36 5 -13 5 C-13 4.34 -13 3.68 -13 3 C-12.01 3 -11.02 3 -10 3 C-9.67 3.66 -9.34 4.32 -9 5 C-8.34 4.34 -7.68 3.68 -7 3 C-4.375 3.375 -4.375 3.375 -2 4 C-1.34 2.68 -0.68 1.36 0 0 Z " fill="#868FE8" transform="translate(69,74)"/>
<path d="M0 0 C1.32 0 2.64 0 4 0 C4 2.31 4 4.62 4 7 C5.7015625 7.2165625 5.7015625 7.2165625 7.4375 7.4375 C11 8 11 8 12 9 C12.07179964 10.51928038 12.08392007 12.04167482 12.0625 13.5625 C12.05347656 14.38878906 12.04445313 15.21507812 12.03515625 16.06640625 C12.02355469 16.70449219 12.01195313 17.34257813 12 18 C9.47524538 19.26237731 7.68799534 19.09856404 4.875 19.0625 C3.96492188 19.05347656 3.05484375 19.04445313 2.1171875 19.03515625 C1.06917969 19.01775391 1.06917969 19.01775391 0 19 C-0.33 17.35 -0.66 15.7 -1 14 C-3.97 14 -6.94 14 -10 14 C-9.67 14.66 -9.34 15.32 -9 16 C-7.02 16 -5.04 16 -3 16 C-2.67 16.66 -2.34 17.32 -2 18 C-4.79870027 19.39935013 -6.90498792 19.25265405 -10 19 C-11.875 17.875 -11.875 17.875 -13 16 C-13.1875 12.8125 -13.1875 12.8125 -13 10 C-12.01 10 -11.02 10 -10 10 C-10 10.66 -10 11.32 -10 12 C-8.35 12 -6.7 12 -5 12 C-5.95865509 9.66924071 -5.95865509 9.66924071 -9 8 C-6 7 -6 7 -2 8 C-1.34 5.36 -0.68 2.72 0 0 Z " fill="#26358B" transform="translate(62,47)"/>
<path d="M0 0 C0.66 0 1.32 0 2 0 C2 0.66 2 1.32 2 2 C2.86625 1.67 3.7325 1.34 4.625 1 C7.95718275 0.01268659 10.55159538 -0.16420974 14 0 C14 1.98 14 3.96 14 6 C13.030625 6.4125 12.06125 6.825 11.0625 7.25 C7.92988039 8.65035249 7.92988039 8.65035249 7.0625 11 C6.87807713 13.21040698 6.87807713 13.21040698 8 16 C8.66 16 9.32 16 10 16 C10 16.66 10 17.32 10 18 C8.68 18 7.36 18 6 18 C5.67 17.34 5.34 16.68 5 16 C4.34 16 3.68 16 3 16 C2.67 16.66 2.34 17.32 2 18 C0.68 18 -0.64 18 -2 18 C-3.18306728 15.63386544 -3.13354608 14.13219264 -3.125 11.5 C-3.12886719 10.30890625 -3.12886719 10.30890625 -3.1328125 9.09375 C-3 7 -3 7 -2 5 C-5.3 4.34 -8.6 3.68 -12 3 C-12 2.67 -12 2.34 -12 2 C-11.21753906 1.93941406 -10.43507813 1.87882812 -9.62890625 1.81640625 C-8.61699219 1.73261719 -7.60507813 1.64882813 -6.5625 1.5625 C-5.55316406 1.48128906 -4.54382813 1.40007813 -3.50390625 1.31640625 C-1.06359221 1.26788532 -1.06359221 1.26788532 0 0 Z " fill="#4553E2" transform="translate(90,48)"/>
<path d="M0 0 C0.33 0.66 0.66 1.32 1 2 C-0.32 2 -1.64 2 -3 2 C-3 2.66 -3 3.32 -3 4 C-2.01 3.67 -1.02 3.34 0 3 C4.08594833 1.8134874 7.76342394 1.85134821 12 2 C11.319375 2.8353125 11.319375 2.8353125 10.625 3.6875 C8.86780574 5.91934821 8.86780574 5.91934821 8.25 8.625 C7 11 7 11 3.375 12.3125 C2.26125 12.539375 1.1475 12.76625 0 13 C0 12.01 0 11.02 0 10 C-0.99 9.67 -1.98 9.34 -3 9 C-3 9.66 -3 10.32 -3 11 C-2.34 11.33 -1.68 11.66 -1 12 C-2.65 12.66 -4.3 13.32 -6 14 C-6 13.34 -6 12.68 -6 12 C-6.66 12.66 -7.32 13.32 -8 14 C-10.125 13.625 -10.125 13.625 -12 13 C-11.979375 12.05125 -11.95875 11.1025 -11.9375 10.125 C-11.77448174 7.09333717 -11.77448174 7.09333717 -13 5 C-12.34 4.67 -11.68 4.34 -11 4 C-10.67 3.01 -10.34 2.02 -10 1 C-6.7 0.67 -3.4 0.34 0 0 Z " fill="#4455E4" transform="translate(72,65)"/>
<path d="M0 0 C0.33 0 0.66 0 1 0 C1 22.77 1 45.54 1 69 C-20.12 69 -41.24 69 -63 69 C-63 68.67 -63 68.34 -63 68 C-61.46291382 67.96241577 -61.46291382 67.96241577 -59.89477539 67.92407227 C-56.10590324 67.83015516 -52.31722119 67.72989683 -48.52856445 67.62768555 C-46.88635697 67.58427703 -45.24410261 67.54260642 -43.60180664 67.50268555 C-41.24611255 67.4451256 -38.89065572 67.38139108 -36.53515625 67.31640625 C-35.79660904 67.29969376 -35.05806183 67.28298126 -34.2971344 67.26576233 C-30.85699373 67.46451987 -30.85699373 67.46451987 -28 66 C-26.48071962 65.92820036 -24.95832518 65.91607993 -23.4375 65.9375 C-22.19806641 65.95103516 -22.19806641 65.95103516 -20.93359375 65.96484375 C-19.97646484 65.98224609 -19.97646484 65.98224609 -19 66 C-19 66.33 -19 66.66 -19 67 C-12.07 67.495 -12.07 67.495 -5 68 C-5 67.34 -5 66.68 -5 66 C-3.68 66 -2.36 66 -1 66 C-0.67 63.03 -0.34 60.06 0 57 C-0.99 56.505 -0.99 56.505 -2 56 C-2 49.73 -2 43.46 -2 37 C-1.67 37 -1.34 37 -1 37 C-1.01160156 35.92105469 -1.02320313 34.84210938 -1.03515625 33.73046875 C-1.11642578 22.45178224 -0.69881794 11.2559604 0 0 Z " fill="#4F35DD" transform="translate(111,43)"/>
<path d="M0 0 C0.05383848 2.45862401 0.09359038 4.9160755 0.125 7.375 C0.14175781 8.07367188 0.15851563 8.77234375 0.17578125 9.4921875 C0.19344267 11.32897486 0.10303261 13.16601963 0 15 C-2 17 -2 17 -5.6953125 17.1953125 C-7.17200108 17.182009 -8.64862358 17.15814835 -10.125 17.125 C-10.87910156 17.11597656 -11.63320312 17.10695313 -12.41015625 17.09765625 C-14.27357254 17.0740687 -16.13682593 17.03819719 -18 17 C-18.33 15.35 -18.66 13.7 -19 12 C-15.535 11.505 -15.535 11.505 -12 11 C-11.67 10.01 -11.34 9.02 -11 8 C-10.01 8.33 -9.02 8.66 -8 9 C-8 9.66 -8 10.32 -8 11 C-6.68 11 -5.36 11 -4 11 C-4 10.34 -4 9.68 -4 9 C-4.66 9 -5.32 9 -6 9 C-6.66 7.35 -7.32 5.7 -8 4 C-4.5 0 -4.5 0 0 0 Z " fill="#4B4AE0" transform="translate(104,55)"/>
<path d="M0 0 C1.98 0 3.96 0 6 0 C5.34 1.32 4.68 2.64 4 4 C7.84911925 7.36686301 10.71283795 7.3845001 15.66015625 7.49609375 C18 8 18 8 19.80859375 10.03515625 C20.20175781 10.68355469 20.59492187 11.33195312 21 12 C19.68 12.33 18.36 12.66 17 13 C17 12.01 17 11.02 17 10 C16.34 10 15.68 10 15 10 C15 10.99 15 11.98 15 13 C13.68 12.67 12.36 12.34 11 12 C11.33 11.34 11.66 10.68 12 10 C11.01 10 10.02 10 9 10 C9 10.99 9 11.98 9 13 C7.68 13.33 6.36 13.66 5 14 C4.67 17.63 4.34 21.26 4 25 C1 21 1 21 1 18 C1.66 18 2.32 18 3 18 C3 16.68 3 15.36 3 14 C2.01 14 1.02 14 0 14 C0 12.68 0 11.36 0 10 C0.99 10 1.98 10 3 10 C3 9.01 3 8.02 3 7 C0.49034386 7.70339566 0.49034386 7.70339566 -2 9 C-2.88693303 11.04105639 -2.88693303 11.04105639 -3 13 C-3.66 13 -4.32 13 -5 13 C-5 10.03 -5 7.06 -5 4 C-4.01 4.33 -3.02 4.66 -2 5 C-1.34 3.35 -0.68 1.7 0 0 Z " fill="#2680F4" transform="translate(21,40)"/>
<path d="M0 0 C11.52164009 -0.18451025 11.52164009 -0.18451025 17 1 C17 1.99 17 2.98 17 4 C11.72086547 6.08386889 6.60461531 6.57910004 1 7 C0.67 9.31 0.34 11.62 0 14 C-0.99 14.33 -1.98 14.66 -3 15 C-3 12.03 -3 9.06 -3 6 C-3.99 6 -4.98 6 -6 6 C-6 8.97 -6 11.94 -6 15 C-7.32 15 -8.64 15 -10 15 C-10 12.03 -10 9.06 -10 6 C-10.99 5.67 -11.98 5.34 -13 5 C-11.68 5 -10.36 5 -9 5 C-9 4.01 -9 3.02 -9 2 C-8.01 2 -7.02 2 -6 2 C-6 2.66 -6 3.32 -6 4 C-5.01 4.33 -4.02 4.66 -3 5 C-3 4.01 -3 3.02 -3 2 C-2.34 2 -1.68 2 -1 2 C-1 2.99 -1 3.98 -1 5 C-0.01 4.67 0.98 4.34 2 4 C1.34 2.68 0.68 1.36 0 0 Z " fill="#2E75EA" transform="translate(39,48)"/>
<path d="M0 0 C0.99 0 1.98 0 3 0 C2.67 2.97 2.34 5.94 2 9 C3.65 9 5.3 9 7 9 C7 8.34 7 7.68 7 7 C6.01 7.33 5.02 7.66 4 8 C4 5.69 4 3.38 4 1 C6.31 1 8.62 1 11 1 C11 3.64 11 6.28 11 9 C11.66 9 12.32 9 13 9 C13.33 9.99 13.66 10.98 14 12 C12.68 12 11.36 12 10 12 C10 13.65 10 15.3 10 17 C8.35 16.67 6.7 16.34 5 16 C5.99 15.01 6.98 14.02 8 13 C5.69 12.67 3.38 12.34 1 12 C0.67 12.66 0.34 13.32 0 14 C-1.98 14 -3.96 14 -6 14 C-6 13.34 -6 12.68 -6 12 C-4.68 12 -3.36 12 -2 12 C-1.34 8.04 -0.68 4.08 0 0 Z " fill="#505DE3" transform="translate(75,55)"/>
<path d="M0 0 C3.63 0 7.26 0 11 0 C10.67 2.31 10.34 4.62 10 7 C10.99 7 11.98 7 13 7 C13 8.98 13 10.96 13 13 C12.01 13.495 12.01 13.495 11 14 C10.443125 14.350625 9.88625 14.70125 9.3125 15.0625 C6.16060153 16.34029668 3.36488992 16.12941884 0 16 C0 15.34 0 14.68 0 14 C0.66 13.67 1.32 13.34 2 13 C2.495 11.2675 2.495 11.2675 3 9.5 C3.495 7.7675 3.495 7.7675 4 6 C4.66 5.67 5.32 5.34 6 5 C2.2236068 4.7018576 2.2236068 4.7018576 0 6 C0 4.02 0 2.04 0 0 Z " fill="#2986F1" transform="translate(48,24)"/>
<path d="M0 0 C1.32 0.33 2.64 0.66 4 1 C3.67 1.99 3.34 2.98 3 4 C7.41522109 2.73025028 7.41522109 2.73025028 11 0 C10.67 2.31 10.34 4.62 10 7 C9.34 7 8.68 7 8 7 C8 7.99 8 8.98 8 10 C8.66 10.33 9.32 10.66 10 11 C6.7 11 3.4 11 0 11 C0 9.02 0 7.04 0 5 C-0.66 4.67 -1.32 4.34 -2 4 C-1.34 2.68 -0.68 1.36 0 0 Z " fill="#6163E2" transform="translate(69,74)"/>
<path d="M0 0 C0.99 0 1.98 0 3 0 C3 2.97 3 5.94 3 9 C4.32 9 5.64 9 7 9 C7 6.03 7 3.06 7 0 C7.99 0 8.98 0 10 0 C10 3.96 10 7.92 10 12 C3.06640625 12.09765625 3.06640625 12.09765625 1 12 C0 11 0 11 -0.09765625 8.49609375 C-0.08605469 7.48675781 -0.07445313 6.47742187 -0.0625 5.4375 C-0.05347656 4.42558594 -0.04445313 3.41367187 -0.03515625 2.37109375 C-0.02355469 1.58863281 -0.01195313 0.80617187 0 0 Z " fill="#171E51" transform="translate(26,54)"/>
<path d="M0 0 C1.23556641 0.01740234 1.23556641 0.01740234 2.49609375 0.03515625 C3.32238281 0.04417969 4.14867187 0.05320312 5 0.0625 C5.63808594 0.07410156 6.27617188 0.08570312 6.93359375 0.09765625 C6.93359375 0.42765625 6.93359375 0.75765625 6.93359375 1.09765625 C13.53359375 1.42765625 20.13359375 1.75765625 26.93359375 2.09765625 C26.93359375 2.42765625 26.93359375 2.75765625 26.93359375 3.09765625 C5.81359375 3.09765625 -15.30640625 3.09765625 -37.06640625 3.09765625 C-37.06640625 2.76765625 -37.06640625 2.43765625 -37.06640625 2.09765625 C-35.52932007 2.06007202 -35.52932007 2.06007202 -33.96118164 2.02172852 C-30.17230949 1.92781141 -26.38362744 1.82755308 -22.5949707 1.7253418 C-20.95276322 1.68193328 -19.31050886 1.64026267 -17.66821289 1.6003418 C-15.3125188 1.54278185 -12.95706197 1.47904733 -10.6015625 1.4140625 C-9.86301529 1.39735001 -9.12446808 1.38063751 -8.36354065 1.36341858 C-5.18321678 1.27022219 -2.84112491 0.13426866 0 0 Z " fill="#673CE2" transform="translate(85.06640625,108.90234375)"/>
<path d="M0 0 C1.32 0 2.64 0 4 0 C4 0.99 4 1.98 4 3 C3.01 3 2.02 3 1 3 C1 4.32 1 5.64 1 7 C1.99 7 2.98 7 4 7 C4 7.99 4 8.98 4 10 C3.01 10 2.02 10 1 10 C1 12.97 1 15.94 1 19 C0.01 19 -0.98 19 -2 19 C-2 16.03 -2 13.06 -2 10 C-2.66 10 -3.32 10 -4 10 C-4 9.01 -4 8.02 -4 7 C-3.34 7 -2.68 7 -2 7 C-2.04125 6.21625 -2.0825 5.4325 -2.125 4.625 C-2 2 -2 2 0 0 Z " fill="#182259" transform="translate(20,47)"/>
<path d="M0 0 C0.33 0 0.66 0 1 0 C1.33 3.63 1.66 7.26 2 11 C4.97 11.33 7.94 11.66 11 12 C10.34 13.32 9.68 14.64 9 16 C8.34 16 7.68 16 7 16 C7 15.01 7 14.02 7 13 C6.01 13.66 5.02 14.32 4 15 C1.51953125 15.4140625 1.51953125 15.4140625 -1.1875 15.625 C-2.08855469 15.69976562 -2.98960938 15.77453125 -3.91796875 15.8515625 C-4.60503906 15.90054688 -5.29210937 15.94953125 -6 16 C-5.67 15.01 -5.34 14.02 -5 13 C-4.77991948 11.27467737 -4.59496906 9.54465967 -4.4375 7.8125 C-4.35371094 6.91144531 -4.26992188 6.01039062 -4.18359375 5.08203125 C-4.12300781 4.39496094 -4.06242187 3.70789062 -4 3 C-3.01 3.33 -2.02 3.66 -1 4 C-1.66 4 -2.32 4 -3 4 C-2.34 5.32 -1.68 6.64 -1 8 C-0.67 5.36 -0.34 2.72 0 0 Z " fill="#2E71DE" transform="translate(25,54)"/>
<path d="M0 0 C1.98 0.66 3.96 1.32 6 2 C6.33 3.65 6.66 5.3 7 7 C4.03 7 1.06 7 -2 7 C-1.67 7.66 -1.34 8.32 -1 9 C0.98 9 2.96 9 5 9 C5.33 9.66 5.66 10.32 6 11 C3.20129973 12.39935013 1.09501208 12.25265405 -2 12 C-3.875 10.875 -3.875 10.875 -5 9 C-5.1875 5.8125 -5.1875 5.8125 -5 3 C-4.01 3 -3.02 3 -2 3 C-2 3.66 -2 4.32 -2 5 C-0.35 5 1.3 5 3 5 C2.04134491 2.66924071 2.04134491 2.66924071 -1 1 C-0.67 0.67 -0.34 0.34 0 0 Z " fill="#161341" transform="translate(54,54)"/>
<path d="M0 0 C4.29 0 8.58 0 13 0 C13 1.98 13 3.96 13 6 C12.360625 5.814375 11.72125 5.62875 11.0625 5.4375 C6.92665389 4.84666484 3.1148827 5.41728241 -1 6 C-0.67 4.02 -0.34 2.04 0 0 Z " fill="#277EF3" transform="translate(59,24)"/>
<path d="M0 0 C1.98 0 3.96 0 6 0 C5.649375 0.5775 5.29875 1.155 4.9375 1.75 C3.82563837 4.41846792 4.21723259 5.30380114 5 8 C4.67 8.99 4.34 9.98 4 11 C1.9375 11.6875 1.9375 11.6875 0 12 C0 11.34 0 10.68 0 10 C0.99 10 1.98 10 3 10 C3 9.01 3 8.02 3 7 C0.49034386 7.70339566 0.49034386 7.70339566 -2 9 C-2.88693303 11.04105639 -2.88693303 11.04105639 -3 13 C-3.66 13 -4.32 13 -5 13 C-5 10.03 -5 7.06 -5 4 C-4.01 4.33 -3.02 4.66 -2 5 C-1.34 3.35 -0.68 1.7 0 0 Z " fill="#2682E5" transform="translate(21,40)"/>
<path d="M0 0 C0.66 0 1.32 0 2 0 C2 2.31 2 4.62 2 7 C2.928125 6.79375 3.85625 6.5875 4.8125 6.375 C8 6 8 6 11 8 C11.1875 11.625 11.1875 11.625 11 15 C10.01 15 9.02 15 8 15 C7.67 13.35 7.34 11.7 7 10 C5.35 9.67 3.7 9.34 2 9 C2 10.98 2 12.96 2 15 C1.01 15.495 1.01 15.495 0 16 C0 10.72 0 5.44 0 0 Z " fill="#120923" transform="translate(63,48)"/>
<path d="M0 0 C0.99 0 1.98 0 3 0 C2.649375 1.093125 2.29875 2.18625 1.9375 3.3125 C0.66960546 6.90920373 0.66960546 6.90920373 2 10 C2.66 10 3.32 10 4 10 C4 10.66 4 11.32 4 12 C2.68 12 1.36 12 0 12 C-0.33 11.34 -0.66 10.68 -1 10 C-1.66 10 -2.32 10 -3 10 C-3.33 10.66 -3.66 11.32 -4 12 C-4.99 12 -5.98 12 -7 12 C-6.649375 10.9275 -6.29875 9.855 -5.9375 8.75 C-4.93284239 4.74564889 -4.93284239 4.74564889 -6 1 C-4.35 1.33 -2.7 1.66 -1 2 C-0.67 1.34 -0.34 0.68 0 0 Z " fill="#171447" transform="translate(96,54)"/>
<path d="M0 0 C3.0625 0.1875 3.0625 0.1875 5.0625 2.1875 C4.0625 3.1875 4.0625 3.1875 1 3.25 C0.030625 3.229375 -0.93875 3.20875 -1.9375 3.1875 C-1.9375 3.8475 -1.9375 4.5075 -1.9375 5.1875 C-1.15375 5.14625 -0.37 5.105 0.4375 5.0625 C3.0625 5.1875 3.0625 5.1875 5.0625 7.1875 C4.52678571 10.72321429 4.52678571 10.72321429 3.0625 12.1875 C1.06291636 12.22830783 -0.93795254 12.23004356 -2.9375 12.1875 C-3.2675 11.1975 -3.5975 10.2075 -3.9375 9.1875 C-0.9675 9.6825 -0.9675 9.6825 2.0625 10.1875 C2.0625 9.1975 2.0625 8.2075 2.0625 7.1875 C1.258125 7.208125 0.45375 7.22875 -0.375 7.25 C-2.9375 7.1875 -2.9375 7.1875 -3.9375 6.1875 C-4.0625 3.6875 -4.0625 3.6875 -3.9375 1.1875 C-2.9375 0.1875 -2.9375 0.1875 0 0 Z " fill="#110E32" transform="translate(42.9375,53.8125)"/>
<path d="M0 0 C0.99 0 1.98 0 3 0 C2.67 2.97 2.34 5.94 2 9 C3.65 9 5.3 9 7 9 C7 8.34 7 7.68 7 7 C6.01 7.33 5.02 7.66 4 8 C4 5.69 4 3.38 4 1 C6.31 1 8.62 1 11 1 C11.33 4.3 11.66 7.6 12 11 C11.01 11 10.02 11 9 11 C9.33 8.03 9.66 5.06 10 2 C8.35 2 6.7 2 5 2 C5.33 2.66 5.66 3.32 6 4 C6.66 4 7.32 4 8 4 C8 6.31 8 8.62 8 11 C5.69 11 3.38 11 1 11 C0.67 7.37 0.34 3.74 0 0 Z " fill="#E0E7F7" transform="translate(75,55)"/>
<path d="M0 0 C0 0.66 0 1.32 0 2 C-1.32 2 -2.64 2 -4 2 C-3.01 2.66 -2.02 3.32 -1 4 C-1 4.66 -1 5.32 -1 6 C-2.65 6 -4.3 6 -6 6 C-6 5.34 -6 4.68 -6 4 C-6.99 4 -7.98 4 -9 4 C-9 5.32 -9 6.64 -9 8 C-11.64 7.34 -14.28 6.68 -17 6 C-17 5.34 -17 4.68 -17 4 C-15.02 3.67 -13.04 3.34 -11 3 C-11.33 2.34 -11.66 1.68 -12 1 C-8.0186217 -0.3271261 -4.14954773 -0.06915913 0 0 Z " fill="#3766D7" transform="translate(58,53)"/>
<path d="M0 0 C1.98 0.495 1.98 0.495 4 1 C4 2.98 4 4.96 4 7 C5.65 7 7.3 7 9 7 C8.67 8.32 8.34 9.64 8 11 C6.02 11 4.04 11 2 11 C-1.07692308 5.70769231 -1.07692308 5.70769231 -0.6875 2.125 C-0.460625 1.42375 -0.23375 0.7225 0 0 Z " fill="#3476EC" transform="translate(63,31)"/>
<path d="M0 0 C0.639375 0.53625 1.27875 1.0725 1.9375 1.625 C1.751875 2.24375 1.56625 2.8625 1.375 3.5 C0.70063824 5.66660178 0.70063824 5.66660178 1.9375 7.625 C-0.7025 7.295 -3.3425 6.965 -6.0625 6.625 C-5.0725 6.295 -4.0825 5.965 -3.0625 5.625 C-3.3925 4.635 -3.7225 3.645 -4.0625 2.625 C-5.0525 2.625 -6.0425 2.625 -7.0625 2.625 C-7.0625 4.275 -7.0625 5.925 -7.0625 7.625 C-7.7225 7.625 -8.3825 7.625 -9.0625 7.625 C-9.0625 5.645 -9.0625 3.665 -9.0625 1.625 C-10.0525 1.295 -11.0425 0.965 -12.0625 0.625 C-4.02748906 -1.80826039 -4.02748906 -1.80826039 0 0 Z " fill="#2F79E8" transform="translate(70.0625,29.375)"/>
<path d="M0 0 C0 1.32 0 2.64 0 4 C-2.79192205 4.05380578 -5.5828141 4.09357669 -8.375 4.125 C-9.1690625 4.14175781 -9.963125 4.15851563 -10.78125 4.17578125 C-12.85492015 4.19335473 -14.92883241 4.10335168 -17 4 C-17.66 3.34 -18.32 2.68 -19 2 C-16.95928485 1.66089006 -14.91737379 1.32897296 -12.875 1 C-11.73804687 0.814375 -10.60109375 0.62875 -9.4296875 0.4375 C-6.23862398 0.03043951 -3.21182209 -0.07809902 0 0 Z " fill="#4E49DE" transform="translate(80,84)"/>
<path d="M0 0 C0.33 0.66 0.66 1.32 1 2 C3.02463255 2.65213292 3.02463255 2.65213292 5 3 C4.67 3.66 4.34 4.32 4 5 C3.34 4.67 2.68 4.34 2 4 C2.61875 5.3303125 2.61875 5.3303125 3.25 6.6875 C3.4975 7.780625 3.745 8.87375 4 10 C2.125 12.875 2.125 12.875 0 15 C-1.18306728 12.63386544 -1.13354608 11.13219264 -1.125 8.5 C-1.12757812 7.7059375 -1.13015625 6.911875 -1.1328125 6.09375 C-1 4 -1 4 0 2 C-0.66 1.67 -1.32 1.34 -2 1 C-1.34 0.67 -0.68 0.34 0 0 Z " fill="#434DDC" transform="translate(88,51)"/>
<path d="M0 0 C1.32 0 2.64 0 4 0 C4 1.65 4 3.3 4 5 C5.65 5 7.3 5 9 5 C9.33 4.01 9.66 3.02 10 2 C10.66 2.33 11.32 2.66 12 3 C13.19811544 7.57462259 12.83154187 11.38032292 12 16 C11.67 16 11.34 16 11 16 C10.67 14.02 10.34 12.04 10 10 C7.69 9.34 5.38 8.68 3 8 C3 5.69 3 3.38 3 1 C2.01 0.67 1.02 0.34 0 0 Z " fill="#3865DF" transform="translate(63,46)"/>
<path d="M0 0 C0.33 0 0.66 0 1 0 C1 2.64 1 5.28 1 8 C1.99 8.33 2.98 8.66 4 9 C5.1875 11.0625 5.1875 11.0625 6 13 C3.69 13.33 1.38 13.66 -1 14 C-1.02685938 11.85423363 -1.04633088 9.70837355 -1.0625 7.5625 C-1.07410156 6.36753906 -1.08570313 5.17257813 -1.09765625 3.94140625 C-1 1 -1 1 0 0 Z " fill="#2C79EE" transform="translate(17,58)"/>
<path d="M0 0 C0.66 0 1.32 0 2 0 C2 0.66 2 1.32 2 2 C4.31 2 6.62 2 9 2 C7.1875 3.0625 7.1875 3.0625 5 4 C4.01 3.67 3.02 3.34 2 3 C2 3.66 2 4.32 2 5 C1.505 4.835 1.01 4.67 0.5 4.5 C-1.84808532 4.03038294 -3.74611065 3.9976212 -6.125 4.0625 C-10 4 -10 4 -12 2 C-11.21753906 1.93941406 -10.43507813 1.87882812 -9.62890625 1.81640625 C-8.61699219 1.73261719 -7.60507813 1.64882813 -6.5625 1.5625 C-5.55316406 1.48128906 -4.54382813 1.40007813 -3.50390625 1.31640625 C-1.06359221 1.26788532 -1.06359221 1.26788532 0 0 Z " fill="#455DED" transform="translate(90,48)"/>
<path d="M0 0 C0.33 0 0.66 0 1 0 C1 7.59 1 15.18 1 23 C-0.98 23 -2.96 23 -5 23 C-5 22.34 -5 21.68 -5 21 C-3.68 21 -2.36 21 -1 21 C-0.67 14.07 -0.34 7.14 0 0 Z " fill="#5A21D7" transform="translate(111,88)"/>
<path d="M0 0 C1.65 0 3.3 0 5 0 C5.33 1.65 5.66 3.3 6 5 C4.68 5.33 3.36 5.66 2 6 C2 6.66 2 7.32 2 8 C1.34 8 0.68 8 0 8 C0 5.36 0 2.72 0 0 Z " fill="#B9C5EE" transform="translate(40,79)"/>
<path d="M0 0 C0.99 0.33 1.98 0.66 3 1 C3 3.31 3 5.62 3 8 C2.01 8 1.02 8 0 8 C-0.33 8.66 -0.66 9.32 -1 10 C-1.99 10 -2.98 10 -4 10 C-4 9.34 -4 8.68 -4 8 C-3.34 7.67 -2.68 7.34 -2 7 C-1.26924352 4.6859378 -0.59861742 2.35171131 0 0 Z " fill="#4089ED" transform="translate(52,30)"/>
<path d="M0 0 C0.66 0.66 1.32 1.32 2 2 C1.625 4.125 1.625 4.125 1 6 C1.66 6.33 2.32 6.66 3 7 C0.03 7 -2.94 7 -6 7 C-5.34 6.34 -4.68 5.68 -4 5 C-4.66 4.67 -5.32 4.34 -6 4 C-6 3.01 -6 2.02 -6 1 C-5.38125 1.20625 -4.7625 1.4125 -4.125 1.625 C-3.073125 1.810625 -3.073125 1.810625 -2 2 C-1.34 1.34 -0.68 0.68 0 0 Z " fill="#D6DBF5" transform="translate(76,78)"/>
<path d="M0 0 C0.66 0.99 1.32 1.98 2 3 C1.67 3.66 1.34 4.32 1 5 C0.34 5 -0.32 5 -1 5 C-1.66 7.31 -2.32 9.62 -3 12 C-3.66 12 -4.32 12 -5 12 C-5.25 5.375 -5.25 5.375 -3 2 C-2.34 2 -1.68 2 -1 2 C-0.67 1.34 -0.34 0.68 0 0 Z " fill="#267FE9" transform="translate(53,26)"/>
<path d="M0 0 C0.99 0 1.98 0 3 0 C3 3.63 3 7.26 3 11 C2.01 10.67 1.02 10.34 0 10 C0 6.7 0 3.4 0 0 Z " fill="#18143E" transform="translate(33,54)"/>
<path d="M0 0 C3.0625 0.1875 3.0625 0.1875 5.0625 2.1875 C4.0625 3.1875 4.0625 3.1875 1 3.25 C0.030625 3.229375 -0.93875 3.20875 -1.9375 3.1875 C-1.6075 4.5075 -1.2775 5.8275 -0.9375 7.1875 C-1.9275 6.8575 -2.9175 6.5275 -3.9375 6.1875 C-3.980221 4.52138095 -3.97813832 2.85367115 -3.9375 1.1875 C-2.9375 0.1875 -2.9375 0.1875 0 0 Z " fill="#171948" transform="translate(42.9375,53.8125)"/>
<path d="M0 0 C1.98 0 3.96 0 6 0 C5.649375 0.61875 5.29875 1.2375 4.9375 1.875 C4.4734375 2.926875 4.4734375 2.926875 4 4 C4.33 4.66 4.66 5.32 5 6 C2.69 6 0.38 6 -2 6 C-1.34 4.02 -0.68 2.04 0 0 Z " fill="#2289F7" transform="translate(21,40)"/>
<path d="M0 0 C0.99 0 1.98 0 3 0 C3 3.3 3 6.6 3 10 C2.01 10 1.02 10 0 10 C0 6.7 0 3.4 0 0 Z " fill="#15133F" transform="translate(18,56)"/>
<path d="M0 0 C0.66 0 1.32 0 2 0 C2 0.66 2 1.32 2 2 C2.99 2 3.98 2 5 2 C5 3.98 5 5.96 5 8 C3.35 8 1.7 8 0 8 C0 5.36 0 2.72 0 0 Z " fill="#C7DEF2" transform="translate(56,29)"/>
<path d="M0 0 C0.33 0.66 0.66 1.32 1 2 C2.65 1.67 4.3 1.34 6 1 C6 2.32 6 3.64 6 5 C-0.75 5.125 -0.75 5.125 -3 4 C-3 3.34 -3 2.68 -3 2 C-2.01 1.34 -1.02 0.68 0 0 Z " fill="#4857E1" transform="translate(46,83)"/>
<path d="M0 0 C2.97 0.495 2.97 0.495 6 1 C6 1.99 6 2.98 6 4 C3.03 3.505 3.03 3.505 0 3 C0.33 3.99 0.66 4.98 1 6 C-0.32 6 -1.64 6 -3 6 C-2.67 4.68 -2.34 3.36 -2 2 C-1.34 2 -0.68 2 0 2 C0 1.34 0 0.68 0 0 Z " fill="#355AC6" transform="translate(39,60)"/>
<path d="M0 0 C2.475 0.495 2.475 0.495 5 1 C4.67 2.65 4.34 4.3 4 6 C2.68 6 1.36 6 0 6 C0 4.02 0 2.04 0 0 Z " fill="#4260E7" transform="translate(66,57)"/>
<path d="M0 0 C2.0625 0.4375 2.0625 0.4375 4 1 C3.67 2.65 3.34 4.3 3 6 C1.68 6 0.36 6 -1 6 C-1.042721 4.33388095 -1.04063832 2.66617115 -1 1 C-0.67 0.67 -0.34 0.34 0 0 Z " fill="#BFC8EF" transform="translate(48,79)"/>
<path d="M0 0 C1.32 0 2.64 0 4 0 C4 1.98 4 3.96 4 6 C2.35 5.67 0.7 5.34 -1 5 C-0.67 3.35 -0.34 1.7 0 0 Z " fill="#C7CEF0" transform="translate(65,79)"/>
<path d="M0 0 C2.31 0 4.62 0 7 0 C7.33 3.3 7.66 6.6 8 10 C7.01 10 6.02 10 5 10 C5.33 7.03 5.66 4.06 6 1 C4.35 1 2.7 1 1 1 C1 2.98 1 4.96 1 7 C0.67 7 0.34 7 0 7 C0 4.69 0 2.38 0 0 Z " fill="#EDF3F1" transform="translate(79,56)"/>
<path d="M0 0 C0 2.31 0 4.62 0 7 C-0.99 7 -1.98 7 -3 7 C-3.103125 6.21625 -3.20625 5.4325 -3.3125 4.625 C-3.77595022 1.66954819 -3.77595022 1.66954819 -7 0 C-3.98968256 -0.93423645 -3.13349732 -1.04449911 0 0 Z " fill="#181440" transform="translate(74,56)"/>
<path d="M0 0 C1.98 0.495 1.98 0.495 4 1 C4 2.65 4 4.3 4 6 C2.35 5.67 0.7 5.34 -1 5 C-0.67 3.35 -0.34 1.7 0 0 Z " fill="#C9DEF2" transform="translate(63,31)"/>
<path d="M0 0 C1.65 0 3.3 0 5 0 C4.67 1.65 4.34 3.3 4 5 C2.68 5.33 1.36 5.66 0 6 C0 4.02 0 2.04 0 0 Z " fill="#2489F4" transform="translate(48,24)"/>
<path d="M0 0 C1.65 0 3.3 0 5 0 C5.125 3.375 5.125 3.375 5 7 C4.34 7.66 3.68 8.32 3 9 C3 6.69 3 4.38 3 2 C2.01 2.33 1.02 2.66 0 3 C0 2.01 0 1.02 0 0 Z " fill="#747DE5" transform="translate(80,57)"/>
<path d="M0 0 C1.32 0 2.64 0 4 0 C4 0.99 4 1.98 4 3 C3.01 3 2.02 3 1 3 C1 4.32 1 5.64 1 7 C0.34 7 -0.32 7 -1 7 C-1.04254356 5.00045254 -1.04080783 2.99958364 -1 1 C-0.67 0.67 -0.34 0.34 0 0 Z " fill="#12123C" transform="translate(20,47)"/>
<path d="M0 0 C1.0625 1.875 1.0625 1.875 2 4 C1.67 4.66 1.34 5.32 1 6 C-0.65 6 -2.3 6 -4 6 C-3.01 5.67 -2.02 5.34 -1 5 C-1 4.34 -1 3.68 -1 3 C-2.65 3 -4.3 3 -6 3 C-6 2.67 -6 2.34 -6 2 C-4.02 1.34 -2.04 0.68 0 0 Z " fill="#365FD9" transform="translate(47,64)"/>
<path d="M0 0 C2.97 0 5.94 0 9 0 C7.3125 1.5625 7.3125 1.5625 5 3 C2.25 2.6875 2.25 2.6875 0 2 C0 1.34 0 0.68 0 0 Z " fill="#3051BC" transform="translate(52,61)"/>
<path d="M0 0 C1.9375 0.8125 1.9375 0.8125 4 2 C4.33 2.99 4.66 3.98 5 5 C3.35 5 1.7 5 0 5 C0 4.34 0 3.68 0 3 C-0.66 2.67 -1.32 2.34 -2 2 C-1.34 1.34 -0.68 0.68 0 0 Z " fill="#27419A" transform="translate(52,54)"/>
<path d="M0 0 C0.33 0.66 0.66 1.32 1 2 C3.02463255 2.65213292 3.02463255 2.65213292 5 3 C4.67 3.66 4.34 4.32 4 5 C3.34 4.67 2.68 4.34 2 4 C2 4.66 2 5.32 2 6 C1.01 6 0.02 6 -1 6 C-0.67 4.68 -0.34 3.36 0 2 C-0.66 1.67 -1.32 1.34 -2 1 C-1.34 0.67 -0.68 0.34 0 0 Z " fill="#3A4BBE" transform="translate(88,51)"/>
<path d="M0 0 C-0.66 1.98 -1.32 3.96 -2 6 C-2.66 5.01 -3.32 4.02 -4 3 C-6.05003955 1.80767387 -6.05003955 1.80767387 -8 1 C-5.07175348 0.02391783 -3.04386724 -0.08226668 0 0 Z " fill="#526BE6" transform="translate(49,77)"/>
<path d="M0 0 C0.99 0.33 1.98 0.66 3 1 C2.67 3.97 2.34 6.94 2 10 C1.67 10 1.34 10 1 10 C0.814375 8.576875 0.814375 8.576875 0.625 7.125 C0.28312823 3.91332809 0.28312823 3.91332809 -2 2 C-1.34 2 -0.68 2 0 2 C0 1.34 0 0.68 0 0 Z " fill="#3855D3" transform="translate(73,52)"/>
<path d="M0 0 C0.268125 0.639375 0.53625 1.27875 0.8125 1.9375 C1.88667752 4.33131686 1.88667752 4.33131686 5 5 C2.35261084 6.4606285 1.10551666 7 -2 7 C-2 6.34 -2 5.68 -2 5 C-1.01 5 -0.02 5 1 5 C0.67 3.35 0.34 1.7 0 0 Z " fill="#317BED" transform="translate(54,33)"/>
<path d="M0 0 C0.33 0 0.66 0 1 0 C1 3.3 1 6.6 1 10 C-2 6 -2 6 -2 3 C-1.34 3 -0.68 3 0 3 C0 2.01 0 1.02 0 0 Z " fill="#2A7DF8" transform="translate(24,55)"/>
<path d="M0 0 C0.99 0.33 1.98 0.66 3 1 C3 2.98 3 4.96 3 7 C2.01 7 1.02 7 0 7 C0 4.69 0 2.38 0 0 Z " fill="#C8E4F6" transform="translate(52,30)"/>
</svg>
